<mxfile host="app.diagrams.net" modified="2021-02-20T04:58:02.019Z" agent="5.0 (Windows NT 10.0; Win64; x64) AppleWebKit/537.36 (KHTML, like Gecko) Chrome/88.0.4324.182 Safari/537.36" etag="kixD88--AVsmUu20qHr8" version="14.4.2" type="github">
  <diagram id="uKeBXFr9ePfVwxBIw0f9" name="Page-1">
    <mxGraphModel dx="1422" dy="762" grid="1" gridSize="10" guides="1" tooltips="1" connect="1" arrows="1" fold="1" page="1" pageScale="1" pageWidth="850" pageHeight="1100" math="0" shadow="0">
      <root>
        <mxCell id="0" />
        <mxCell id="1" parent="0" />
        <mxCell id="jNXJlrop_OGe3CUt8n3I-1" value="&lt;font style=&quot;font-size: 18px&quot;&gt;Start&lt;/font&gt;" style="ellipse;whiteSpace=wrap;html=1;" parent="1" vertex="1">
          <mxGeometry x="315" width="120" height="80" as="geometry" />
        </mxCell>
        <mxCell id="jNXJlrop_OGe3CUt8n3I-2" value="&lt;font style=&quot;font-size: 18px&quot;&gt;Enter Radius&lt;/font&gt;" style="rounded=0;whiteSpace=wrap;html=1;" parent="1" vertex="1">
          <mxGeometry x="315" y="140" width="117.5" height="60" as="geometry" />
        </mxCell>
        <mxCell id="jNXJlrop_OGe3CUt8n3I-3" value="&lt;font style=&quot;font-size: 11px&quot;&gt;Circumference = 2&lt;span id=&quot;docs-internal-guid-28d19eb8-7fff-136f-90b2-225c098e7ec0&quot;&gt;&lt;span style=&quot;font-size: 11pt ; font-family: &amp;#34;helvetica neue&amp;#34; , sans-serif ; background-color: transparent ; vertical-align: baseline&quot;&gt;ℼr&lt;/span&gt;&lt;/span&gt;&lt;br&gt;&lt;/font&gt;&amp;nbsp;" style="rounded=0;whiteSpace=wrap;html=1;" parent="1" vertex="1">
          <mxGeometry x="313.75" y="260" width="120" height="60" as="geometry" />
        </mxCell>
        <mxCell id="jNXJlrop_OGe3CUt8n3I-4" value="&lt;font style=&quot;font-size: 11px&quot;&gt;Area =&amp;nbsp;&lt;span id=&quot;docs-internal-guid-28d19eb8-7fff-136f-90b2-225c098e7ec0&quot;&gt;&lt;span style=&quot;font-size: 11pt ; font-family: &amp;#34;helvetica neue&amp;#34; , sans-serif ; background-color: transparent ; vertical-align: baseline&quot;&gt;ℼr&lt;/span&gt;&lt;/span&gt;&lt;span id=&quot;docs-internal-guid-556edd80-7fff-b18d-36ab-085abfa33c51&quot;&gt;&lt;span style=&quot;font-size: 11pt ; font-family: &amp;#34;helvetica neue&amp;#34; , sans-serif ; background-color: transparent ; vertical-align: baseline&quot;&gt;²&lt;/span&gt;&lt;/span&gt;&lt;br&gt;&amp;nbsp;&lt;/font&gt;" style="rounded=0;whiteSpace=wrap;html=1;" parent="1" vertex="1">
          <mxGeometry x="470" y="260" width="120" height="60" as="geometry" />
        </mxCell>
        <mxCell id="jNXJlrop_OGe3CUt8n3I-5" value="Show Circumference" style="rounded=0;whiteSpace=wrap;html=1;" parent="1" vertex="1">
          <mxGeometry x="315" y="380" width="120" height="60" as="geometry" />
        </mxCell>
        <mxCell id="jNXJlrop_OGe3CUt8n3I-6" value="&lt;font style=&quot;font-size: 14px&quot;&gt;Show Area&lt;/font&gt;" style="rounded=0;whiteSpace=wrap;html=1;" parent="1" vertex="1">
          <mxGeometry x="480" y="380" width="120" height="60" as="geometry" />
        </mxCell>
        <mxCell id="jNXJlrop_OGe3CUt8n3I-7" value="&lt;font style=&quot;font-size: 18px&quot;&gt;Stop&lt;/font&gt;" style="ellipse;whiteSpace=wrap;html=1;" parent="1" vertex="1">
          <mxGeometry x="315" y="500" width="120" height="80" as="geometry" />
        </mxCell>
        <mxCell id="jNXJlrop_OGe3CUt8n3I-8" value="&lt;font style=&quot;font-size: 18px&quot;&gt;Stop&lt;/font&gt;" style="ellipse;whiteSpace=wrap;html=1;" parent="1" vertex="1">
          <mxGeometry x="470" y="500" width="120" height="80" as="geometry" />
        </mxCell>
        <mxCell id="jNXJlrop_OGe3CUt8n3I-15" value="" style="html=1;shadow=0;dashed=0;align=center;verticalAlign=middle;shape=mxgraph.arrows2.arrow;dy=0.6;dx=40;direction=south;notch=0;" parent="1" vertex="1">
          <mxGeometry x="520" y="80" width="20" height="60" as="geometry" />
        </mxCell>
        <mxCell id="jNXJlrop_OGe3CUt8n3I-18" value="" style="html=1;shadow=0;dashed=0;align=center;verticalAlign=middle;shape=mxgraph.arrows2.arrow;dy=0.6;dx=40;direction=south;notch=0;" parent="1" vertex="1">
          <mxGeometry x="365" y="80" width="20" height="60" as="geometry" />
        </mxCell>
        <mxCell id="jNXJlrop_OGe3CUt8n3I-19" value="" style="html=1;shadow=0;dashed=0;align=center;verticalAlign=middle;shape=mxgraph.arrows2.arrow;dy=0.6;dx=40;direction=south;notch=0;" parent="1" vertex="1">
          <mxGeometry x="520" y="200" width="20" height="60" as="geometry" />
        </mxCell>
        <mxCell id="jNXJlrop_OGe3CUt8n3I-20" value="" style="html=1;shadow=0;dashed=0;align=center;verticalAlign=middle;shape=mxgraph.arrows2.arrow;dy=0.6;dx=40;direction=south;notch=0;" parent="1" vertex="1">
          <mxGeometry x="365" y="200" width="20" height="60" as="geometry" />
        </mxCell>
        <mxCell id="jNXJlrop_OGe3CUt8n3I-21" value="" style="html=1;shadow=0;dashed=0;align=center;verticalAlign=middle;shape=mxgraph.arrows2.arrow;dy=0.6;dx=40;direction=south;notch=0;" parent="1" vertex="1">
          <mxGeometry x="520" y="320" width="20" height="60" as="geometry" />
        </mxCell>
        <mxCell id="yZuP05QT-5Sl7EvDEvFk-1" value="&lt;font style=&quot;font-size: 18px&quot;&gt;Enter Radius&lt;/font&gt;" style="rounded=0;whiteSpace=wrap;html=1;" vertex="1" parent="1">
          <mxGeometry x="455" y="140" width="125" height="60" as="geometry" />
        </mxCell>
        <mxCell id="yZuP05QT-5Sl7EvDEvFk-3" value="&lt;font style=&quot;font-size: 18px&quot;&gt;Start&lt;/font&gt;" style="ellipse;whiteSpace=wrap;html=1;" vertex="1" parent="1">
          <mxGeometry x="470" width="120" height="80" as="geometry" />
        </mxCell>
        <mxCell id="yZuP05QT-5Sl7EvDEvFk-10" value="" style="html=1;shadow=0;dashed=0;align=center;verticalAlign=middle;shape=mxgraph.arrows2.arrow;dy=0.6;dx=40;direction=south;notch=0;" vertex="1" parent="1">
          <mxGeometry x="363.75" y="320" width="20" height="60" as="geometry" />
        </mxCell>
        <mxCell id="yZuP05QT-5Sl7EvDEvFk-11" value="" style="html=1;shadow=0;dashed=0;align=center;verticalAlign=middle;shape=mxgraph.arrows2.arrow;dy=0.6;dx=40;direction=south;notch=0;" vertex="1" parent="1">
          <mxGeometry x="365" y="440" width="20" height="60" as="geometry" />
        </mxCell>
        <mxCell id="yZuP05QT-5Sl7EvDEvFk-12" value="" style="html=1;shadow=0;dashed=0;align=center;verticalAlign=middle;shape=mxgraph.arrows2.arrow;dy=0.6;dx=40;direction=south;notch=0;" vertex="1" parent="1">
          <mxGeometry x="520" y="440" width="20" height="60" as="geometry" />
        </mxCell>
      </root>
    </mxGraphModel>
  </diagram>
</mxfile>
